<?xml version="1.0" encoding="UTF-8" standalone="no"?>
<svg
   xmlns:dc="http://purl.org/dc/elements/1.1/"
   xmlns:cc="http://creativecommons.org/ns#"
   xmlns:rdf="http://www.w3.org/1999/02/22-rdf-syntax-ns#"
   xmlns:svg="http://www.w3.org/2000/svg"
   xmlns="http://www.w3.org/2000/svg"
   viewBox="0 0 1122.52 793.70135"
   height="793.70135"
   width="1122.52"
   xml:space="preserve"
   id="svg2"
   version="1.1"><metadata
     id="metadata8"><rdf:RDF><cc:Work
         rdf:about=""><dc:format>image/svg+xml</dc:format><dc:type
           rdf:resource="http://purl.org/dc/dcmitype/StillImage" /></cc:Work></rdf:RDF></metadata><defs
     id="defs6"><clipPath
       id="clipPath18"
       clipPathUnits="userSpaceOnUse"><path
         id="path16"
         d="M 0,595.276 H 841.89 V 0 H 0 Z" /></clipPath></defs><g
     transform="matrix(1.3333333,0,0,-1.3333333,0,793.70133)"
     id="g10"><g
       id="g12"><g
         clip-path="url(#clipPath18)"
         id="g14"><path
           id="path20"
           style="fill:#3c4295;fill-opacity:1;fill-rule:nonzero;stroke:none"
           d="m 658.776,339.213 c -2.851,-5.195 -4.554,-8.313 -4.718,-8.609 -1.54,2.303 -3.518,5.275 -5.859,8.789 -24.754,37.174 -89.556,134.582 -90.222,135.579 -7.319,10.991 -18.046,17.697 -31.508,17.685 -1.259,0 -2.518,0 -3.78,-0.003 -12.425,-0.01 -24.851,-0.023 -37.283,-0.035 -31.314,-0.028 -62.627,-0.057 -93.947,-0.085 -2.539,-0.003 -5.077,-0.007 -7.616,-0.01 -17.644,-0.015 -37.433,-14.126 -48.114,-27.473 -13.295,-16.622 -21.048,-35.25 -21.389,-56.793 -0.337,-21.193 8.218,-40.064 20.953,-56.395 12.114,-15.54 32.619,-28.035 52.521,-27.991 10.775,0.02 21.55,0.044 32.323,0.064 20.551,0.041 33.527,0.082 54.08,0.126 0,0 6.053,-3.457 6.053,-13.207 0,-9.75 -7.285,-12.51 -7.285,-12.51 -44.063,0.082 -64.243,0.004 -104.769,0.06 -3.246,0.006 -6.618,0.009 -10.145,0.016 -1.85,2.776 -3.65,5.474 -5.408,8.113 -25.854,38.771 -42.812,64.159 -69.962,104.885 -14.284,21.426 -28.568,42.852 -42.849,64.275 -7.102,10.65 -17.666,17.688 -30.833,17.688 -12.534,0 -24.549,-6.814 -30.831,-17.688 C 151.706,429.861 125.224,384.031 98.745,338.2 87.714,319.108 76.68,300.017 65.652,280.922 52.119,257.499 69.316,227.189 96.482,227.189 h 134.177 c 19.467,0 35.709,16.247 35.709,35.707 0,19.468 -16.242,35.714 -35.709,35.714 -41.367,0 -29.276,0.104 -62.623,0.12 -2.705,0.006 -5.707,0.006 -9.064,0.006 1.483,2.568 2.885,4.991 4.207,7.287 20.677,35.881 22.789,40.367 42.974,75.421 1.561,2.713 3.233,5.609 5.03,8.713 1.798,-2.694 3.413,-5.117 4.891,-7.331 15.95,-23.928 15.425,-23.149 49.113,-73.677 13.55,-20.331 27.105,-40.659 40.658,-60.991 0.73,-1.095 1.459,-2.185 2.191,-3.277 7.338,-11.016 18.036,-17.666 31.51,-17.692 1.268,0 2.531,-0.005 3.796,-0.005 12.478,-0.02 24.955,-0.045 37.434,-0.07 31.209,-0.057 62.415,-0.114 93.626,-0.171 2.396,-0.003 4.798,-0.005 7.196,-0.012 10.154,-0.019 20.413,4.93 28.754,10.548 10.202,6.866 17.53,14.456 24.718,24.286 10.612,14.51 15.768,33.58 15.496,51.435 -0.131,8.679 -1.598,17.921 -4.585,26.14 -4.302,11.857 -9.627,20.154 -17.395,29.977 -9.187,11.606 -22.493,18.837 -35.903,24.31 -5,2.044 -10.329,1.852 -15.575,1.836 -10.81,-0.019 -21.614,-0.041 -32.42,-0.063 -20.203,-0.038 -32.835,-0.082 -53.038,-0.12 0,0 -6.797,3.741 -6.797,12.908 0,9.166 6.466,12.919 6.466,12.919 41.436,0.041 76.992,0.136 116.91,0.173 25.088,-37.634 49.994,-75.215 75.083,-112.852 14.284,-21.42 28.565,-42.847 42.849,-64.273 7.105,-10.65 17.666,-17.684 30.83,-17.684 12.328,0 24.814,6.747 30.833,17.684 25.512,46.389 51.026,92.778 76.537,139.166 10.2,18.536 20.395,37.07 30.591,55.606 9.375,17.057 4.29,38.837 -12.817,48.856 -16.451,9.64 -39.487,4.224 -48.853,-12.811 -21.107,-38.379 -60.865,-110.885 -74.506,-135.759" /><path
           id="path22"
           style="fill:#ffffff;fill-opacity:1;fill-rule:nonzero;stroke:none"
           d="M 210.436,416.021 319.27,252.383 c 5.147,-7.727 11.97,-11.651 20.279,-11.666 l 142.05,-0.259 c 5.748,-0.013 13.267,2.915 21.182,8.24 8.34,5.612 14.524,11.716 21.35,21.05 8.312,11.363 13.132,27.531 12.891,43.244 -0.113,7.634 -1.454,15.354 -3.774,21.736 -3.852,10.615 -8.52,17.643 -15.29,26.192 -6.199,7.833 -15.861,14.247 -30.406,20.189 -0.636,0.259 -2.134,0.868 -95.894,0.644 l -4.347,-0.006 -4.639,3.363 c -0.462,0.296 -11.484,7.536 -11.484,22.114 0,14.874 10.715,23.615 10.715,23.615 l 0.082,0.082 3.836,3.706 c 0.003,0 5.465,0.007 5.465,0.007 0.003,0 60.192,0.092 60.192,0.092 l 64.083,0.107 121.834,-183.173 c 5.161,-7.738 11.748,-11.666 19.581,-11.666 7.715,0 15.523,4.395 18.974,10.679 l 91.841,166.97 15.29,27.805 c 6.085,11.07 2.662,24.54 -7.795,30.666 -5.038,2.953 -11.382,3.691 -17.407,2.025 -5.653,-1.552 -10.184,-4.993 -12.764,-9.684 L 655.186,304.271 546.707,467.467 c -5.164,7.751 -11.977,11.672 -20.244,11.666 l -142.628,-0.136 c -12.772,-0.009 -28.884,-11.546 -37.559,-22.394 -12.125,-15.158 -18.153,-31.041 -18.432,-48.559 -0.254,-16.035 5.834,-32.136 18.093,-47.862 10.483,-13.445 27.685,-22.814 41.83,-22.789 0.004,0 86.401,0.196 86.401,0.196 l 5.594,0.013 c 1.023,0 13.895,-13.112 13.895,-27.604 0,-14.215 -12.185,-22.17 -12.185,-22.17 -0.004,-0.004 -0.111,-0.089 -0.111,-0.089 -1.561,-1.233 -3.8,-2.843 -3.8,-2.843 0.005,0 -4.623,-0.072 -4.623,-0.072 l -122.002,0.197 -122.359,183.168 c -5.159,7.742 -11.744,11.666 -19.579,11.666 -7.779,0 -15.282,-4.29 -19.12,-10.927 l -56.267,-97.39 -56.269,-97.38 c -3.951,-6.839 -3.862,-15.164 0.237,-22.262 1.938,-3.362 7.662,-11.179 18.886,-11.179 h 134.177 c 12.022,0 22.183,10.157 22.183,22.179 0,12.029 -10.161,22.187 -22.183,22.187 -0.986,0 -94.831,0.438 -94.831,0.438 l 37.049,64.85 z m -2.875,5.75 -79.329,-138.596 0.492,-2.32 c 0.814,-1.041 0.814,-1.041 6.42,-1.049 l 11.306,-0.02 34.299,-0.047 49.89,-0.069 c 9.095,0 16.773,-7.679 16.773,-16.774 0,-9.087 -7.678,-16.769 -16.77,-16.769 H 96.465 c -8.405,0 -12.732,5.928 -14.2,8.473 -3.12,5.404 -3.21,11.704 -0.237,16.849 l 0.002,0.006 112.531,194.766 c 2.888,4.997 8.554,8.221 14.437,8.221 5.912,0 10.984,-3.11 15.079,-9.249 l 123.029,-184.489 0.705,-1.205 20.85,-0.012 42.484,-0.032 61.787,-0.044 5.653,-0.006 c 0.964,0 5.899,3.931 5.899,3.931 0.595,0.372 14.587,9.413 14.587,26.662 0,16.972 -11.248,27.256 -11.724,27.689 0.084,-0.083 -6.56,5.325 -6.56,5.325 l -6.63,-0.017 -86.399,-0.188 c -12.586,-0.026 -28.029,8.485 -37.554,20.703 -11.482,14.726 -17.185,29.678 -16.949,44.448 0.256,16.275 5.896,31.08 17.244,45.263 7.828,9.789 22.798,20.357 33.337,20.366 l 142.63,0.136 c 6.523,0.003 11.528,-2.937 15.739,-9.253 l 110.928,-166.667 2.479,-3.717 2.149,3.919 c 0,0 92.095,167.847 92.095,167.844 1.868,3.398 5.231,5.912 9.461,7.079 4.628,1.274 9.449,0.732 13.234,-1.483 7.908,-4.634 10.451,-14.908 5.789,-23.388 L 763.043,420.246 671.215,253.281 c -2.511,-4.561 -8.501,-7.874 -14.239,-7.874 -5.913,0 -10.989,3.114 -15.08,9.253 l -122.758,184.375 -0.802,1.208 -1.454,-0.003 -65.409,-0.108 -60.196,-0.088 -6.46,-0.009 c -1.088,0 -6.383,-5.038 -6.383,-5.038 -0.516,-0.416 -12.656,-10.325 -12.656,-27.773 0,-17.628 13.713,-26.477 13.713,-26.477 l 6.276,-4.42 5.904,0.013 c 36.118,0.088 91.048,0.06 94.33,-0.385 -0.022,0.003 -0.227,0.031 -0.498,0.145 13.653,-5.578 22.615,-11.467 28.212,-18.534 6.423,-8.123 10.842,-14.759 14.448,-24.684 2.113,-5.836 3.344,-12.928 3.451,-19.972 0.221,-14.578 -4.209,-29.517 -11.848,-39.966 -6.433,-8.801 -12.228,-14.524 -20.01,-19.76 -6.922,-4.663 -13.532,-7.326 -18.143,-7.319 l -142.055,0.262 c -6.569,0.016 -11.587,2.949 -15.787,9.259 l -0.15,0.218 -0.191,0.192 0.338,-0.41 -111.35,167.03 c 0,0 -1.107,1.105 -2.232,1.105 -1.125,0 -2.625,-1.75 -2.625,-1.75" /><path
           id="path24"
           style="fill:#3c4295;fill-opacity:1;fill-rule:nonzero;stroke:none"
           d="m 178.011,189.174 c 0,6.344 -4.293,9.516 -12.88,9.516 -3.066,0 -5.639,-0.172 -7.719,-0.516 0.186,-4.641 0.279,-10.947 0.279,-18.922 1.6,-0.054 3.133,-0.079 4.6,-0.079 10.479,0 15.72,3.332 15.72,10.001 m 12.24,-37.522 h -7.721 c -2.558,7.654 -4.426,12.72 -5.599,15.2 -1.493,3.12 -3.186,5.135 -5.079,6.041 -1.495,0.718 -4.173,1.079 -8.041,1.079 -2.265,0 -4.279,-0.026 -6.04,-0.079 0,-8.613 0.16,-16.026 0.481,-22.241 h -7.441 c 0.4,8.269 0.601,17.389 0.601,27.361 0,9.387 -0.201,17.628 -0.601,24.718 h 5.64 c 1.2,0 2.719,0.041 4.56,0.121 1.841,0.079 3.947,0.12 6.321,0.12 11.68,0 17.52,-4.026 17.52,-12.079 0,-6.695 -3.281,-11.401 -9.841,-14.121 v -0.4 c 2.933,-0.88 5.306,-2.921 7.12,-6.12 1.519,-2.666 4.226,-9.199 8.12,-19.6" /><path
           id="path26"
           style="fill:#3c4295;fill-opacity:1;fill-rule:nonzero;stroke:none"
           d="m 224.297,175.054 c 0,7.492 -3.132,11.239 -9.4,11.239 -6.399,0 -10.172,-3.896 -11.319,-11.682 z m 6.681,0.078 c 0,-1.119 -0.054,-2.665 -0.16,-4.64 l -27.48,-0.48 c 0.267,-3.893 1.773,-7.155 4.521,-9.78 2.745,-2.627 6.385,-3.939 10.918,-3.939 4.054,0 7.853,0.492 11.401,1.479 l -0.68,-5.64 c -2.614,-1.038 -6.387,-1.559 -11.32,-1.559 -6.934,0 -12.221,1.893 -15.86,5.679 -3.641,3.788 -5.459,8.4 -5.459,13.839 0,5.814 1.659,10.82 4.978,15.022 3.322,4.2 7.781,6.3 13.382,6.3 5.145,0 9.06,-1.52 11.738,-4.561 2.681,-3.039 4.021,-6.947 4.021,-11.72" /><path
           id="path28"
           style="fill:#3c4295;fill-opacity:1;fill-rule:nonzero;stroke:none"
           d="m 274.103,151.652 h -7.281 c 0.587,7.013 0.88,14.666 0.88,22.959 0,4.108 -0.833,6.915 -2.498,8.42 -1.669,1.508 -4.048,2.262 -7.142,2.262 -3.786,0 -7.28,-1.375 -10.48,-4.12 0,-9.095 0.053,-18.934 0.161,-29.521 h -7.281 c 0.454,9.067 0.681,15.628 0.681,19.682 0,6.24 -0.586,12.29 -1.76,18.158 l 7.039,1 0.761,-4.881 h 0.32 c 3.946,3.575 8.174,5.361 12.68,5.361 4.426,0 7.853,-0.979 10.279,-2.941 2.426,-1.959 3.641,-5.444 3.641,-10.457 0,-0.508 -0.027,-1.508 -0.081,-3 -0.053,-1.496 -0.08,-2.496 -0.08,-3 0,-4.455 0.054,-11.095 0.161,-19.922" /><path
           id="path30"
           style="fill:#3c4295;fill-opacity:1;fill-rule:nonzero;stroke:none"
           d="m 306.51,157.173 -0.481,-5.199 c -2.108,-0.773 -4.093,-1.161 -5.961,-1.161 -4.798,0 -8.079,1.218 -9.839,3.66 -1.76,2.438 -2.641,6.807 -2.641,13.1 0,4.079 0.027,9.399 0.081,15.96 -1.494,0 -3.692,-0.082 -6.599,-0.24 l 0.24,5.799 c 2.532,-0.161 4.799,-0.24 6.799,-0.24 0,1.599 0.133,5.4 0.401,11.4 l 6.279,0.641 c -0.453,-5.6 -0.68,-9.616 -0.68,-12.041 2.612,0 6.453,0.132 11.521,0.4 l -0.281,-5.959 c -4.8,0.158 -8.653,0.24 -11.56,0.24 -0.054,-4.028 -0.081,-8.561 -0.081,-13.599 0,-5.496 0.581,-9.13 1.742,-10.903 1.158,-1.773 3.312,-2.659 6.459,-2.659 1.039,0 2.572,0.268 4.601,0.801" /><path
           id="path32"
           style="fill:#3c4295;fill-opacity:1;fill-rule:nonzero;stroke:none"
           d="m 336.952,159.413 c -0.134,4.054 -0.201,7.693 -0.201,10.921 -5.014,0 -8.826,-0.375 -11.439,-1.12 -4.374,-1.334 -6.561,-3.88 -6.561,-7.641 0,-3.628 2.561,-5.441 7.68,-5.441 4.401,0 7.906,1.095 10.521,3.281 m 7.079,-7.761 -6.279,-0.24 c -0.32,1.307 -0.481,2.546 -0.481,3.72 h -0.399 c -3.28,-2.987 -7.747,-4.48 -13.4,-4.48 -3.066,0 -5.706,0.903 -7.921,2.701 -2.213,1.797 -3.319,4.366 -3.319,7.7 0,4.107 1.732,7.407 5.199,9.899 3.467,2.492 9.907,3.808 19.32,3.941 0.081,0.64 0.121,1.372 0.121,2.198 0,3.281 -0.874,5.468 -2.621,6.561 -1.747,1.092 -4.394,1.641 -7.939,1.641 -4.187,0 -8.307,-0.521 -12.36,-1.562 l 0.679,5.521 c 4.001,1.148 8.6,1.72 13.801,1.72 4.746,0 8.413,-0.979 11,-2.941 2.587,-1.959 3.88,-5.3 3.88,-10.018 0,-1.253 -0.06,-3.528 -0.18,-6.821 -0.12,-3.294 -0.18,-5.486 -0.18,-6.581 0,-4.851 0.36,-9.173 1.079,-12.959" /><path
           id="path34"
           style="fill:#3c4295;fill-opacity:1;fill-rule:nonzero;stroke:none"
           d="m 361.917,151.652 h -7.679 c 0.479,8.802 0.72,18.748 0.72,29.84 0,10.773 -0.387,19.587 -1.16,26.439 l 8.119,0.4 c -0.507,-7.252 -0.76,-16.198 -0.76,-26.839 0,-10.959 0.253,-20.906 0.76,-29.84" /><path
           id="path36"
           style="fill:#3c4295;fill-opacity:1;fill-rule:nonzero;stroke:none"
           d="m 428.24,158.012 -0.519,-5.959 c -3.281,-0.988 -6.853,-1.48 -10.721,-1.48 -9.173,0 -16.066,2.512 -20.678,7.54 -4.615,5.026 -6.921,11.167 -6.921,18.42 0,7.599 2.574,14.152 7.721,19.659 5.147,5.505 12.066,8.259 20.758,8.259 2.401,0 4.934,-0.359 7.6,-1.079 l -1.12,-6.359 c -3.066,0.959 -5.798,1.438 -8.199,1.438 -6.454,0 -11.347,-2 -14.68,-6 -3.333,-4 -5,-8.892 -5,-14.679 0,-5.892 1.92,-10.946 5.759,-15.161 3.841,-4.211 9.148,-6.318 15.921,-6.318 2.587,0 5.946,0.574 10.079,1.719" /><path
           id="path38"
           style="fill:#3c4295;fill-opacity:1;fill-rule:nonzero;stroke:none"
           d="m 465.326,170.413 c 0,4.157 -1.047,7.858 -3.138,11.098 -2.096,3.24 -5.075,4.861 -8.941,4.861 -3.841,0 -6.796,-1.533 -8.861,-4.6 -2.067,-3.066 -3.099,-6.627 -3.099,-10.681 0,-4.186 1.047,-7.893 3.14,-11.12 2.093,-3.224 5.087,-4.839 8.981,-4.839 3.839,0 6.785,1.539 8.839,4.621 2.054,3.079 3.079,6.632 3.079,10.66 m 6.922,1.4 c 0,-6.826 -1.963,-12.154 -5.881,-15.981 -3.922,-3.826 -8.533,-5.738 -13.84,-5.738 -4.962,0 -9.22,1.691 -12.781,5.079 -3.558,3.385 -5.338,8.161 -5.338,14.319 0,6.88 1.965,12.252 5.899,16.119 3.933,3.868 8.552,5.802 13.859,5.802 4.961,0 9.213,-1.716 12.76,-5.142 3.548,-3.426 5.322,-8.246 5.322,-14.458" /><path
           id="path40"
           style="fill:#3c4295;fill-opacity:1;fill-rule:nonzero;stroke:none"
           d="m 531.734,174.813 c 0,4.265 -0.741,7.085 -2.22,8.458 -1.48,1.375 -3.912,2.06 -7.3,2.06 -2.852,0 -5.8,-1.397 -8.84,-4.199 -0.106,-3.252 -0.16,-6.439 -0.16,-9.558 0,-4.455 0.08,-11.095 0.239,-19.922 h -7.279 c 0.587,7.6 0.88,15.319 0.88,23.161 0,4.265 -0.74,7.085 -2.219,8.458 -1.481,1.375 -3.849,2.06 -7.102,2.06 -3.332,0 -6.452,-1.397 -9.359,-4.199 0,-8.454 0.054,-18.28 0.161,-29.48 h -7.281 c 0.508,9.067 0.761,15.628 0.761,19.682 0,6.158 -0.6,12.212 -1.8,18.158 l 7.039,1 0.72,-4.84 h 0.4 c 3.467,3.546 7.32,5.32 11.561,5.32 6.32,0 10.385,-1.774 12.2,-5.32 h 0.438 c 4.029,3.546 8,5.32 11.921,5.32 4.48,0 7.866,-0.988 10.16,-2.959 2.293,-1.975 3.44,-5.454 3.44,-10.439 0,-0.508 -0.027,-1.508 -0.08,-3 -0.054,-1.496 -0.081,-2.496 -0.081,-3 0,-4.455 0.053,-11.095 0.161,-19.922 h -7.281 c 0.616,6.988 0.921,14.707 0.921,23.161" /><path
           id="path42"
           style="fill:#3c4295;fill-opacity:1;fill-rule:nonzero;stroke:none"
           d="m 577.743,171.252 c 0,3.946 -1.041,7.328 -3.123,10.139 -2.076,2.814 -4.997,4.22 -8.758,4.22 -4.8,0 -8.239,-1.454 -10.321,-4.359 0.429,-8.959 0.643,-16.653 0.643,-23.079 2.158,-1.814 4.972,-2.719 8.435,-2.719 4.404,0 7.692,1.545 9.861,4.637 2.177,3.095 3.263,6.814 3.263,11.161 m 7.116,0.959 c 0,-5.761 -1.646,-10.805 -4.939,-15.139 -3.294,-4.332 -7.874,-6.499 -13.735,-6.499 -4.91,0 -8.133,0.88 -9.685,2.641 h -0.397 c 0,-7.413 0.081,-14.028 0.239,-19.84 h -7.521 c 0.613,7.092 0.921,15.853 0.921,26.278 0,12.852 -0.669,22.799 -2,29.84 l 7.041,1 0.6,-3.959 h 0.397 c 2.587,3.013 6.777,4.521 12.562,4.521 5.092,0 9.117,-1.862 12.082,-5.581 2.959,-3.722 4.435,-8.142 4.435,-13.262" /><path
           id="path44"
           style="fill:#3c4295;fill-opacity:1;fill-rule:nonzero;stroke:none"
           d="m 617.068,159.413 c -0.132,4.054 -0.202,7.693 -0.202,10.921 -5.015,0 -8.826,-0.375 -11.438,-1.12 -4.372,-1.334 -6.562,-3.88 -6.562,-7.641 0,-3.628 2.562,-5.441 7.678,-5.441 4.404,0 7.906,1.095 10.524,3.281 m 7.079,-7.761 -6.278,-0.24 c -0.321,1.307 -0.485,2.546 -0.485,3.72 h -0.398 c -3.281,-2.987 -7.748,-4.48 -13.401,-4.48 -3.065,0 -5.703,0.903 -7.918,2.701 -2.214,1.797 -3.318,4.366 -3.318,7.7 0,4.107 1.728,7.407 5.199,9.899 3.463,2.492 9.905,3.808 19.318,3.941 0.082,0.64 0.12,1.372 0.12,2.198 0,3.281 -0.871,5.468 -2.618,6.561 -1.748,1.092 -4.397,1.641 -7.943,1.641 -4.184,0 -8.304,-0.521 -12.361,-1.562 l 0.682,5.521 c 4,1.148 8.6,1.72 13.799,1.72 4.75,0 8.416,-0.979 11.003,-2.941 2.587,-1.959 3.88,-5.3 3.88,-10.018 0,-1.253 -0.063,-3.528 -0.183,-6.821 -0.12,-3.294 -0.177,-5.486 -0.177,-6.581 0,-4.851 0.36,-9.173 1.079,-12.959" /><path
           id="path46"
           style="fill:#3c4295;fill-opacity:1;fill-rule:nonzero;stroke:none"
           d="m 668.191,151.652 h -7.28 c 0.587,7.013 0.883,14.666 0.883,22.959 0,4.108 -0.832,6.915 -2.505,8.42 -1.665,1.508 -4.044,2.262 -7.135,2.262 -3.792,0 -7.281,-1.375 -10.48,-4.12 0,-9.095 0.051,-18.934 0.158,-29.521 h -7.281 c 0.454,9.067 0.681,15.628 0.681,19.682 0,6.24 -0.586,12.29 -1.759,18.158 l 7.041,1 0.757,-4.881 h 0.321 c 3.95,3.575 8.171,5.361 12.681,5.361 4.423,0 7.849,-0.979 10.279,-2.941 2.428,-1.959 3.639,-5.444 3.639,-10.457 0,-0.508 -0.024,-1.508 -0.082,-3 -0.049,-1.496 -0.075,-2.496 -0.075,-3 0,-4.455 0.051,-11.095 0.157,-19.922" /><path
           id="path48"
           style="fill:#3c4295;fill-opacity:1;fill-rule:nonzero;stroke:none"
           d="m 709.719,189.653 c 0,-1.707 -2.012,-7.148 -6.037,-16.319 -4.619,-10.482 -7.484,-17.868 -8.6,-22.161 -1.843,-6.959 -3.553,-11.385 -5.123,-13.281 -2.133,-2.612 -5.931,-3.918 -11.401,-3.918 l -0.322,5.599 c 3.338,0 6.108,1.133 8.322,3.401 2.214,2.265 3.319,5.104 3.319,8.517 0,2.963 -2.454,10 -7.356,21.12 -4.91,11.12 -7.364,16.802 -7.364,17.042 h 8.284 c 0,-0.722 1.678,-5.574 5.036,-14.562 3.362,-8.985 5.041,-14.518 5.041,-16.6 h 0.403 c 0,1.736 1.42,6.761 4.259,15.083 2.839,8.319 4.258,13.678 4.258,16.079 z" /></g></g></g></svg>